<?xml version="1.0" encoding="UTF-8" standalone="no"?>
<!-- Created with Inkscape (http://www.inkscape.org/) -->

<svg
   xmlns:dc="http://purl.org/dc/elements/1.1/"
   xmlns:cc="http://creativecommons.org/ns#"
   xmlns:rdf="http://www.w3.org/1999/02/22-rdf-syntax-ns#"
   xmlns:svg="http://www.w3.org/2000/svg"
   xmlns="http://www.w3.org/2000/svg"
   xmlns:sodipodi="http://sodipodi.sourceforge.net/DTD/sodipodi-0.dtd"
   xmlns:inkscape="http://www.inkscape.org/namespaces/inkscape"
   width="210mm"
   height="297mm"
   viewBox="0 0 744.09448819 1052.3622047"
   id="svg2"
   version="1.1"
   inkscape:version="0.91 r13725"
   sodipodi:docname="lifting.svg"
   inkscape:export-filename="/Users/tonibuenter/_proj/remote-query/docs/g5097.png"
   inkscape:export-xdpi="53.840736"
   inkscape:export-ydpi="53.840736">
  <defs
     id="defs4">
    <inkscape:path-effect
       effect="powerstroke"
       id="path-effect4945"
       is_visible="true"
       offset_points="0,0.5"
       sort_points="true"
       interpolator_type="CubicBezierJohan"
       interpolator_beta="0.2"
       start_linecap_type="zerowidth"
       linejoin_type="round"
       miter_limit="4"
       end_linecap_type="zerowidth"
       cusp_linecap_type="round" />
    <inkscape:path-effect
       effect="powerstroke"
       id="path-effect4941"
       is_visible="true"
       offset_points="0,0.5"
       sort_points="true"
       interpolator_type="CubicBezierJohan"
       interpolator_beta="0.2"
       start_linecap_type="zerowidth"
       linejoin_type="round"
       miter_limit="4"
       end_linecap_type="zerowidth"
       cusp_linecap_type="round" />
  </defs>
  <sodipodi:namedview
     id="base"
     pagecolor="#ffffff"
     bordercolor="#666666"
     borderopacity="1.0"
     inkscape:pageopacity="0.0"
     inkscape:pageshadow="2"
     inkscape:zoom="0.62240426"
     inkscape:cx="-2321.0006"
     inkscape:cy="698.90846"
     inkscape:document-units="px"
     inkscape:current-layer="layer1"
     showgrid="false"
     inkscape:window-width="1634"
     inkscape:window-height="1005"
     inkscape:window-x="46"
     inkscape:window-y="1"
     inkscape:window-maximized="1" />
  <metadata
     id="metadata7">
    <rdf:RDF>
      <cc:Work
         rdf:about="">
        <dc:format>image/svg+xml</dc:format>
        <dc:type
           rdf:resource="http://purl.org/dc/dcmitype/StillImage" />
        <dc:title></dc:title>
      </cc:Work>
    </rdf:RDF>
  </metadata>
  <g
     inkscape:label="Layer 1"
     inkscape:groupmode="layer"
     id="layer1">
    <path
       style="fill:#6c6753"
       d="m -1389.8462,-348.02415 c 25.3147,-25.35243 35.8652,2e-5 35.8652,2e-5 l 0,2.97717 c 0,6.95334 -11.5671,31.094 -21.6883,45.26365 -14.6841,20.55779 -38.5154,39.60208 -60.5365,48.37655 -3.5287,1.40603 -4.8472,2.51552 -5.2082,4.38263 -0.2658,1.375 -2.574,18.37181 -5.1291,37.77069 l -4.6458,35.27069 5.4444,6.22931 c 29.7953,34.0912 40.9608,66.47926 41.1034,119.22931 0.06,22.25834 -0.5162,25.34004 -5.6736,30.33879 -5.4328,5.26577 -12.2879,6.43906 -19.1663,3.28048 l 0,-2e-5 c -8.9796,-4.12346 -10.5,-8.40196 -10.5,-29.54793 0,-31.19036 -3.883,-51.73572 -13.4264,-71.04074 -5.5217,-11.16971 -12.5691,-22.07023 -12.579,-19.45662 -0.013,3.4861 -4.3403,30.51097 -6.6019,41.23219 -7.0531,33.43621 -23.0902,68.52559 -34.3143,75.08026 -7.2666,4.24355 -18.1006,1.5593 -22.8847,-5.66998 -2.0379,-3.07946 -2.6352,-5.23331 -2.6607,-9.59371 -0.03,-5.1016 0.4887,-6.47532 5.5956,-14.82156 13.5666,-22.17195 21.8981,-52.45121 26.2097,-95.25385 1.2649,-12.5563 1.2358,-13.65572 -0.4363,-16.5 -4.3215,-7.35085 -4.255,-9.56681 1.5966,-53.22066 3.0099,-22.45467 5.7463,-42.52979 6.0808,-44.61137 1.2736,-7.92542 9.718,-13.76094 29.9206,-20.6765 27.8398,-9.52983 45.0484,-21.78516 59.7317,-42.5388 4.7611,-6.72935 11.7463,-19.55807 13.204,-24.25 l 0.6991,-2.25"
       id="path4287"
       inkscape:connector-curvature="0"
       sodipodi:nodetypes="ccssssscsssccsscssscssssssssc" />
    <ellipse
       style="opacity:1;fill:#42a29a;fill-opacity:1;fill-rule:nonzero;stroke:#000000;stroke-width:1;stroke-linecap:round;stroke-linejoin:round;stroke-miterlimit:22.5;stroke-dasharray:1, 4;stroke-dashoffset:0;stroke-opacity:0.63137255"
       id="path4293"
       cx="-1466.646"
       cy="-324.7804"
       rx="26.223803"
       ry="26.52873" />
    <g
       id="g5026"
       transform="translate(-134.20519,417.36341)">
      <rect
         transform="matrix(0.99999985,5.3897589e-4,0.02503768,0.99968651,0,0)"
         style="opacity:1;fill:#e9e9e9;fill-opacity:1;fill-rule:nonzero;stroke:#0c0c0c;stroke-width:7.88472605;stroke-linecap:round;stroke-linejoin:round;stroke-miterlimit:22.5;stroke-dasharray:none;stroke-dashoffset:0;stroke-opacity:1"
         id="rect5003"
         width="402.4231"
         height="112.02355"
         x="-1415.9601"
         y="-897.84949"
         ry="6.9274397" />
      <text
         transform="scale(0.92224448,1.0843112)"
         sodipodi:linespacing="125%"
         id="text4313"
         y="-758.06232"
         x="-1535.767"
         style="font-style:normal;font-weight:normal;font-size:56.30434799px;line-height:125%;font-family:sans-serif;letter-spacing:0px;word-spacing:0px;fill:#000000;fill-opacity:1;stroke:none;stroke-width:1px;stroke-linecap:butt;stroke-linejoin:miter;stroke-opacity:1"
         xml:space="preserve"><tspan
           style="font-style:normal;font-variant:normal;font-weight:normal;font-stretch:normal;font-size:63.34239197px;font-family:Roboto;-inkscape-font-specification:Roboto;fill:#42a29a;fill-opacity:1;stroke:#42a29a;stroke-width:1.40760863px;stroke-opacity:1"
           y="-758.06232"
           x="-1535.767"
           id="tspan4315"
           sodipodi:role="line">RemoteQuery</tspan></text>
    </g>
    <g
       id="g4918"
       transform="translate(-922.51445,-199.59002)"
       inkscape:export-filename="/Users/tonibuenter/g4932sm.png"
       inkscape:export-xdpi="10.655861"
       inkscape:export-ydpi="10.655861">
      <path
         id="path4305"
         d="m -301.22472,463.17602 c 5.38731,12.49167 25.11925,3.22179 28.87921,3.22179 4.39156,0 14.20792,2.82481 17.18635,4.94564 1.4731,1.04894 3.9572,4.2568 5.52021,7.12857 4.85883,8.92726 3.18535,20.53211 -3.85184,26.71084 -1.76054,1.54578 -18.78257,12.44023 -37.82672,24.2099 l -34.62574,21.39939 5.87577,6.28122 c 35.3429,37.78166 47.901,71.45035 51.48344,138.0288 0.36866,6.85131 0.1844,12.75849 -0.47425,15.20454 -2.98026,11.06783 -15.21661,16.91247 -25.5659,12.21144 -8.09985,-3.67926 -11.43667,-10.26471 -11.46161,-22.62034 -0.0782,-38.76836 -10.61363,-76.82021 -27.73881,-100.18748 l -4.75821,-6.49256 -0.75762,7.34002 c -5.05347,48.95957 -11.60063,76.81385 -23.84772,101.45786 -9.34096,18.7962 -16.35387,24.00425 -28.17343,20.92265 -5.66446,-1.47684 -9.30453,-4.56597 -11.83119,-10.04049 -3.26372,-7.07153 -2.569,-10.86386 4.50476,-24.5907 16.12968,-31.30012 22.52135,-69.75102 23.86555,-143.57014 0.23635,-12.97966 0.28095,-13.21171 3.23965,-16.85588 1.94747,-2.39867 11.93437,-9.23509 28.46553,-19.48575 14.00604,-8.68488 25.60009,-16.19438 25.76455,-16.68777 0.16447,-0.4934 -1.58476,-4.0272 -3.96553,-2.9654 -5.58851,-3.10127 -8.95025,-5.37938 -17.86189,-10.99652 -11.71546,-11.8028 -25.69873,-24.17402 -35.4231,-38.39354 -10.78978,-16.20778 -15.68289,-26.48899 -15.63363,-32.84877 0.12459,-16.08449 18.59257,-24.56152 30.57986,-14.03655 1.86974,1.64166 5.43262,6.92129 7.91753,11.73252 6.52646,12.63644 15.81672,25.18569 25.26841,34.1325"
         style="fill:#000000"
         inkscape:connector-curvature="0" />
      <ellipse
         style="opacity:1;fill:#ff0000;fill-opacity:1;fill-rule:nonzero;stroke:#000000;stroke-width:1;stroke-linecap:round;stroke-linejoin:round;stroke-miterlimit:22.5;stroke-dasharray:1, 4;stroke-dashoffset:0;stroke-opacity:0.63137255"
         id="ellipse4307"
         cx="-209.4507"
         cy="473.94598"
         rx="26.223803"
         ry="26.52873" />
      <rect
         transform="matrix(0.82737356,-0.56165202,0.56165202,0.82737356,0,0)"
         style="opacity:1;fill:none;fill-opacity:0;fill-rule:nonzero;stroke:#000000;stroke-width:9.74104309;stroke-linecap:round;stroke-linejoin:round;stroke-miterlimit:22.5;stroke-dasharray:none;stroke-dashoffset:0;stroke-opacity:0.63137255"
         id="rect4311"
         width="384.72327"
         height="178.84692"
         x="-704.81982"
         y="35.902977"
         ry="11.059739" />
      <text
         inkscape:transform-center-y="2.0615793"
         inkscape:transform-center-x="22.898914"
         transform="matrix(0.90027129,0.31342621,-0.73139671,0.85614316,0,0)"
         sodipodi:linespacing="125%"
         id="text4317"
         y="461.16589"
         x="-21.480825"
         style="font-style:normal;font-weight:normal;font-size:43.05759811px;line-height:125%;font-family:sans-serif;letter-spacing:0px;word-spacing:0px;fill:#000000;fill-opacity:1;stroke:none;stroke-width:1px;stroke-linecap:butt;stroke-linejoin:miter;stroke-opacity:1"
         xml:space="preserve"><tspan
           style="font-style:normal;font-variant:normal;font-weight:bold;font-stretch:normal;font-family:sans-serif;-inkscape-font-specification:'sans-serif Bold';fill:#ff0000"
           y="461.16589"
           x="-21.480825"
           id="tspan4319"
           sodipodi:role="line">ORM</tspan></text>
      <text
         transform="matrix(0.80414761,-0.59442967,0.59442967,0.80414761,0,0)"
         sodipodi:linespacing="125%"
         id="text4325"
         y="76.538902"
         x="-635.56842"
         style="font-style:normal;font-weight:normal;font-size:40px;line-height:125%;font-family:sans-serif;letter-spacing:0px;word-spacing:0px;fill:#000000;fill-opacity:1;stroke:none;stroke-width:1px;stroke-linecap:butt;stroke-linejoin:miter;stroke-opacity:1"
         xml:space="preserve"><tspan
           style="font-style:normal;font-variant:normal;font-weight:bold;font-stretch:normal;font-family:sans-serif;-inkscape-font-specification:'sans-serif Bold';fill:#ffcc00"
           y="76.538902"
           x="-635.56842"
           id="tspan4327"
           sodipodi:role="line">Hibernate</tspan></text>
      <text
         inkscape:transform-center-y="-25.145199"
         inkscape:transform-center-x="39.289374"
         transform="matrix(0.41247053,0.91097094,-0.91097094,0.41247053,0,0)"
         sodipodi:linespacing="125%"
         id="text4329"
         y="373.68213"
         x="120.73895"
         style="font-style:normal;font-weight:normal;font-size:40px;line-height:125%;font-family:sans-serif;letter-spacing:0px;word-spacing:0px;fill:#000000;fill-opacity:1;stroke:none;stroke-width:1px;stroke-linecap:butt;stroke-linejoin:miter;stroke-opacity:1"
         xml:space="preserve"><tspan
           style="font-style:normal;font-variant:normal;font-weight:normal;font-stretch:normal;font-family:'Courier New';-inkscape-font-specification:'Courier New';fill:#ff6600"
           y="373.68213"
           x="120.73895"
           id="tspan4331"
           sodipodi:role="line">config</tspan></text>
      <text
         transform="matrix(0.36062286,0.50550247,-1.311013,0.9352699,0,0)"
         sodipodi:linespacing="125%"
         id="text4333"
         y="425.24536"
         x="61.275047"
         style="font-style:normal;font-weight:normal;font-size:32.40372086px;line-height:125%;font-family:sans-serif;letter-spacing:0px;word-spacing:0px;fill:#000000;fill-opacity:1;stroke:none;stroke-width:1px;stroke-linecap:butt;stroke-linejoin:miter;stroke-opacity:1"
         xml:space="preserve"><tspan
           style="font-style:normal;font-variant:normal;font-weight:bold;font-stretch:normal;font-family:sans-serif;-inkscape-font-specification:'sans-serif Bold'"
           y="425.24536"
           x="61.275047"
           id="tspan4335"
           sodipodi:role="line">lines of code</tspan></text>
    </g>
    <g
       id="g4987"
       inkscape:export-xdpi="10.655861"
       inkscape:export-ydpi="10.655861">
      <path
         inkscape:connector-curvature="0"
         style="fill:#6c6753"
         d="m -1861.1087,-574.42158 c 5.3873,12.49167 25.1192,3.22179 28.8792,3.22179 4.3915,0 14.2079,2.82481 17.1863,4.94564 1.4731,1.04894 3.9572,4.2568 5.5202,7.12857 4.8589,8.92726 3.1854,20.53211 -3.8518,26.71084 -1.7605,1.54578 -18.7826,12.44023 -37.8267,24.2099 l -34.6258,21.39939 5.8758,6.28122 c 35.3429,37.78166 47.901,71.45035 51.4835,138.0288 0.3686,6.85131 0.1844,12.75849 -0.4743,15.20454 -2.9803,11.06783 -15.2166,16.91247 -25.5659,12.21144 -8.0998,-3.67926 -11.4367,-10.26471 -11.4616,-22.62034 -0.078,-38.76836 -10.6136,-76.82021 -27.7388,-100.18748 l -4.7582,-6.49256 -0.7576,7.34002 c -5.0535,48.95957 -11.6007,76.81385 -23.8478,101.45786 -9.3409,18.7962 -16.3538,24.00425 -28.1734,20.92265 -5.6645,-1.47684 -9.3045,-4.56597 -11.8312,-10.04049 -3.2637,-7.07153 -2.569,-10.86386 4.5048,-24.5907 16.1297,-31.30012 22.5213,-69.75102 23.8655,-143.57014 0.2364,-12.97966 0.281,-13.21171 3.2397,-16.85588 1.9474,-2.39867 11.9343,-9.23509 28.4655,-19.48575 14.006,-8.68488 25.6001,-16.19438 25.7646,-16.68777 0.1644,-0.4934 -1.5848,-4.0272 -3.9656,-2.9654 -5.5885,-3.10127 -8.9502,-5.37938 -17.8619,-10.99652 -11.7154,-11.8028 -25.6987,-24.17402 -35.4231,-38.39354 -10.7897,-16.20778 -15.6829,-26.48899 -15.6336,-32.84877 0.1246,-16.08449 18.5926,-24.56152 30.5799,-14.03655 1.8697,1.64166 5.4326,6.92129 7.9175,11.73252 6.5265,12.63644 15.8167,25.18569 25.2684,34.1325"
         id="path4949" />
      <ellipse
         ry="26.52873"
         rx="26.223803"
         cy="-563.65161"
         cx="-1769.3347"
         id="ellipse4951"
         style="opacity:1;fill:#484537;fill-opacity:1;fill-rule:nonzero;stroke:#000000;stroke-width:1;stroke-linecap:round;stroke-linejoin:round;stroke-miterlimit:22.5;stroke-dasharray:1, 4;stroke-dashoffset:0;stroke-opacity:0.63137255" />
      <g
         style="stroke:#0c0c0c;stroke-opacity:1"
         transform="matrix(0.99909811,0.04246134,-0.04246134,0.99909811,-621.77754,76.540867)"
         id="g4982">
        <rect
           transform="matrix(0.83182161,-0.55504307,0.56826707,0.82284418,0,0)"
           style="opacity:1;fill:#e9e9e9;fill-opacity:1;fill-rule:nonzero;stroke:#0c0c0c;stroke-width:10.10128784;stroke-linecap:round;stroke-linejoin:round;stroke-miterlimit:22.5;stroke-dasharray:none;stroke-dashoffset:0;stroke-opacity:1"
           id="rect4953"
           width="400.21933"
           height="184.87341"
           x="-923.84064"
           y="-1373.8712"
           ry="11.432412" />
        <text
           inkscape:transform-center-y="54.328929"
           inkscape:transform-center-x="44.576458"
           transform="matrix(0.85946314,-0.41427933,0.02992966,1.1490903,0,0)"
           sodipodi:linespacing="125%"
           id="text4955"
           y="-1069.2072"
           x="-1678.7206"
           style="font-style:normal;font-weight:normal;font-size:128.20936584px;line-height:125%;font-family:sans-serif;letter-spacing:0px;word-spacing:0px;fill:#000000;fill-opacity:1;stroke:#0c0c0c;stroke-width:1px;stroke-linecap:butt;stroke-linejoin:miter;stroke-opacity:1"
           xml:space="preserve"><tspan
             style="font-style:normal;font-variant:normal;font-weight:bold;font-stretch:normal;font-family:sans-serif;-inkscape-font-specification:'sans-serif Bold';fill:#ff0000;stroke:#0c0c0c;stroke-opacity:1"
             y="-1069.2072"
             x="-1678.7206"
             id="tspan4957"
             sodipodi:role="line">ORM</tspan></text>
      </g>
    </g>
    <path
       inkscape:connector-curvature="0"
       style="fill:#6c6753"
       d="m -816.9628,-770.56763 c 5.3873,12.49167 25.1192,3.22179 28.8792,3.22179 4.3915,0 14.2079,2.82481 17.1863,4.94564 1.4731,1.04894 3.9572,4.2568 5.5202,7.12857 4.8589,8.92726 3.1854,20.53211 -3.8518,26.71084 -1.7605,1.54578 -18.7826,12.44023 -37.8267,24.2099 l -34.6258,21.39939 5.8758,6.28122 c 35.3429,37.78166 47.901,71.45035 51.4835,138.0288 0.3686,6.85131 0.1844,12.75849 -0.4743,15.20454 -2.9803,11.06783 -15.2166,16.91247 -25.5659,12.21144 -8.0998,-3.67926 -11.4367,-10.26471 -11.4616,-22.62034 -0.078,-38.76836 -10.6136,-76.82021 -27.7388,-100.18748 l -4.7582,-6.49256 -0.7576,7.34002 c -5.0535,48.95957 -11.6007,76.81385 -23.8478,101.45786 -9.3409,18.7962 -16.3538,24.00425 -28.1734,20.92265 -5.6645,-1.47684 -9.3045,-4.56597 -11.8312,-10.04049 -3.2637,-7.07153 -2.569,-10.86386 4.5048,-24.5907 16.1297,-31.30012 22.5213,-69.75102 23.8655,-143.57014 0.2364,-12.97966 0.281,-13.21171 3.2397,-16.85588 1.9474,-2.39867 11.9343,-9.23509 28.4655,-19.48575 14.006,-8.68488 25.6001,-16.19438 25.7646,-16.68777 0.1644,-0.4934 -1.5848,-4.0272 -3.9656,-2.9654 -5.5885,-3.10127 -8.9502,-5.37938 -17.8619,-10.99652 -11.7154,-11.8028 -25.6987,-24.17402 -35.4231,-38.39354 -10.7897,-16.20778 -15.6829,-26.48899 -15.6336,-32.84877 0.1246,-16.08449 18.5926,-24.56152 30.5799,-14.03655 1.8697,1.64166 5.4326,6.92129 7.9175,11.73252 6.5265,12.63644 15.8167,25.18569 25.2684,34.1325"
       id="path4997" />
    <ellipse
       ry="26.52873"
       rx="26.223803"
       cy="-759.79767"
       cx="-725.18884"
       id="ellipse4999"
       style="opacity:1;fill:#484537;fill-opacity:1;fill-rule:nonzero;stroke:#000000;stroke-width:1;stroke-linecap:round;stroke-linejoin:round;stroke-miterlimit:22.5;stroke-dasharray:1, 4;stroke-dashoffset:0;stroke-opacity:0.63137255" />
    <path
       d="m -2593.8461,388.37835 c 0,0 234.6727,69.42449 380.7572,-23.38032 l -29.92,-61.13489 149.6442,30.27185 -57.132,158.76284 -24.8718,-50.82308 c 0,0 -51.9546,24.21125 -208.379,23.83077 -107.5612,-3.50597 -210.0986,-77.52717 -210.0986,-77.52717 z"
       id="path4943"
       inkscape:connector-curvature="0"
       style="fill:#ffd42a"
       sodipodi:nodetypes="cccccccc"
       inkscape:export-filename="/Users/tonibuenter/g4931.png"
       inkscape:export-xdpi="53.840736"
       inkscape:export-ydpi="53.840736" />
    <g
       id="g5057"
       transform="translate(382.38813,-392.02817)"
       inkscape:export-xdpi="53.840736"
       inkscape:export-ydpi="53.840736">
      <path
         style="fill:#6c6753"
         d="m -2257.4495,579.02607 c 25.3147,-25.35243 35.8652,2e-5 35.8652,2e-5 l 0,2.97717 c 0,6.95334 -11.5671,31.094 -21.6883,45.26365 -14.6841,20.55779 -38.5154,39.60208 -60.5365,48.37655 -3.5287,1.40603 -4.8472,2.51552 -5.2082,4.38263 -0.2658,1.375 -2.574,18.37181 -5.1291,37.77069 l -4.6458,35.27069 5.4444,6.22931 c 29.7953,34.0912 40.9608,66.47926 41.1034,119.22931 0.06,22.25834 -0.5162,25.34004 -5.6736,30.33879 -5.4328,5.26577 -12.2879,6.43906 -19.1663,3.28048 l 0,-2e-5 c -8.9796,-4.12346 -10.5,-8.40196 -10.5,-29.54793 0,-31.19036 -3.883,-51.73572 -13.4264,-71.04074 -5.5217,-11.16971 -12.5691,-22.07023 -12.579,-19.45662 -0.013,3.4861 -4.3403,30.51097 -6.6019,41.23219 -7.0531,33.43621 -23.0902,68.52559 -34.3143,75.08026 -7.2666,4.24355 -18.1006,1.5593 -22.8847,-5.66998 -2.0379,-3.07946 -2.6352,-5.23331 -2.6607,-9.59371 -0.03,-5.1016 0.4887,-6.47532 5.5956,-14.82156 13.5666,-22.17195 21.8981,-52.45121 26.2097,-95.25385 1.2649,-12.5563 1.2358,-13.65572 -0.4363,-16.5 -4.3215,-7.35085 -4.255,-9.56681 1.5966,-53.22066 3.0099,-22.45467 5.7463,-42.52979 6.0808,-44.61137 1.2736,-7.92542 9.718,-13.76094 29.9206,-20.6765 27.8398,-9.52983 45.0484,-21.78516 59.7317,-42.5388 4.7611,-6.72935 11.7463,-19.55807 13.204,-24.25 l 0.6991,-2.25"
         id="path5031"
         inkscape:connector-curvature="0"
         sodipodi:nodetypes="ccssssscsssccsscssscssssssssc" />
      <ellipse
         style="opacity:1;fill:#42a29a;fill-opacity:1;fill-rule:nonzero;stroke:#000000;stroke-width:1;stroke-linecap:round;stroke-linejoin:round;stroke-miterlimit:22.5;stroke-dasharray:1, 4;stroke-dashoffset:0;stroke-opacity:0.63137255"
         id="ellipse5033"
         cx="-2334.2495"
         cy="602.26984"
         rx="26.223803"
         ry="26.52873" />
      <g
         id="g5035"
         transform="translate(-1001.8085,1344.4136)">
        <rect
           transform="matrix(0.99999985,5.3897589e-4,0.02503768,0.99968651,0,0)"
           style="opacity:1;fill:#e9e9e9;fill-opacity:1;fill-rule:nonzero;stroke:#0c0c0c;stroke-width:7.88472605;stroke-linecap:round;stroke-linejoin:round;stroke-miterlimit:22.5;stroke-dasharray:none;stroke-dashoffset:0;stroke-opacity:1"
           id="rect5037"
           width="402.4231"
           height="112.02355"
           x="-1415.9601"
           y="-897.84949"
           ry="6.9274397" />
        <text
           transform="scale(0.92224448,1.0843112)"
           sodipodi:linespacing="125%"
           id="text5039"
           y="-758.06232"
           x="-1535.767"
           style="font-style:normal;font-weight:normal;font-size:56.30434799px;line-height:125%;font-family:sans-serif;letter-spacing:0px;word-spacing:0px;fill:#000000;fill-opacity:1;stroke:none;stroke-width:1px;stroke-linecap:butt;stroke-linejoin:miter;stroke-opacity:1"
           xml:space="preserve"><tspan
             style="font-style:normal;font-variant:normal;font-weight:normal;font-stretch:normal;font-size:63.34239197px;font-family:Roboto;-inkscape-font-specification:Roboto;fill:#42a29a;fill-opacity:1;stroke:#42a29a;stroke-width:1.40760863px;stroke-opacity:1"
             y="-758.06232"
             x="-1535.767"
             id="tspan5041"
             sodipodi:role="line">RemoteQuery</tspan></text>
      </g>
    </g>
    <path
       inkscape:connector-curvature="0"
       style="fill:#6c6753"
       d="m -2739.9587,283.54171 c 5.3873,12.49167 25.1192,3.22179 28.8792,3.22179 4.3915,0 14.2079,2.82481 17.1863,4.94564 1.4731,1.04894 3.9572,4.2568 5.5202,7.12857 4.8589,8.92726 3.1854,20.53211 -3.8518,26.71084 -1.7605,1.54578 -18.7826,12.44023 -37.8267,24.2099 l -34.6258,21.39939 5.8758,6.28122 c 35.3429,37.78166 47.901,71.45035 51.4835,138.0288 0.3686,6.85131 0.1844,12.75849 -0.4743,15.20454 -2.9803,11.06783 -15.2166,16.91247 -25.5659,12.21144 -8.0998,-3.67926 -11.4367,-10.26471 -11.4616,-22.62034 -0.078,-38.76836 -10.6136,-76.82021 -27.7388,-100.18748 l -4.7582,-6.49256 -0.7576,7.34002 c -5.0535,48.95957 -11.6007,76.81385 -23.8478,101.45786 -9.3409,18.7962 -16.3538,24.00425 -28.1734,20.92265 -5.6645,-1.47684 -9.3045,-4.56597 -11.8312,-10.04049 -3.2637,-7.07153 -2.569,-10.86386 4.5048,-24.5907 16.1297,-31.30012 22.5213,-69.75102 23.8655,-143.57014 0.2364,-12.97966 0.281,-13.21171 3.2397,-16.85588 1.9474,-2.39867 11.9343,-9.23509 28.4655,-19.48575 14.006,-8.68488 25.6001,-16.19438 25.7646,-16.68777 0.1644,-0.4934 -1.5848,-4.0272 -3.9656,-2.9654 -5.5885,-3.10127 -8.9502,-5.37938 -17.8619,-10.99652 -11.7154,-11.8028 -25.6987,-24.17402 -35.4231,-38.39354 -10.7897,-16.20778 -15.6829,-26.48899 -15.6336,-32.84877 0.1246,-16.08449 18.5926,-24.56152 30.5799,-14.03655 1.8697,1.64166 5.4326,6.92129 7.9175,11.73252 6.5265,12.63644 15.8167,25.18569 25.2684,34.1325"
       id="path5045"
       inkscape:export-xdpi="53.840736"
       inkscape:export-ydpi="53.840736" />
    <ellipse
       ry="26.52873"
       rx="26.223803"
       cy="294.31168"
       cx="-2648.1848"
       id="ellipse5047"
       style="opacity:1;fill:#484537;fill-opacity:1;fill-rule:nonzero;stroke:#000000;stroke-width:1;stroke-linecap:round;stroke-linejoin:round;stroke-miterlimit:22.5;stroke-dasharray:1, 4;stroke-dashoffset:0;stroke-opacity:0.63137255"
       inkscape:export-xdpi="53.840736"
       inkscape:export-ydpi="53.840736" />
    <rect
       ry="11.432412"
       y="-1354.364"
       x="-2691.863"
       height="184.87341"
       width="400.21933"
       id="rect5051"
       style="opacity:1;fill:#e9e9e9;fill-opacity:1;fill-rule:nonzero;stroke:#0c0c0c;stroke-width:10.10128784;stroke-linecap:round;stroke-linejoin:round;stroke-miterlimit:22.5;stroke-dasharray:none;stroke-dashoffset:0;stroke-opacity:1"
       transform="matrix(0.85463927,-0.51922222,0.53281549,0.84623144,0,0)"
       inkscape:export-xdpi="53.840736"
       inkscape:export-ydpi="53.840736" />
    <text
       xml:space="preserve"
       style="font-style:normal;font-weight:normal;font-size:128.20936584px;line-height:125%;font-family:sans-serif;letter-spacing:0px;word-spacing:0px;fill:#ff5555;fill-opacity:1;stroke:none;stroke-width:1px;stroke-linecap:butt;stroke-linejoin:miter;stroke-opacity:1"
       x="-3393.2319"
       y="-1173.1174"
       id="text5053"
       sodipodi:linespacing="125%"
       transform="matrix(0.81186816,-0.50117295,0.14893011,1.1397913,0,0)"
       inkscape:transform-center-x="36.437666"
       inkscape:transform-center-y="60.249103"
       inkscape:export-xdpi="53.840736"
       inkscape:export-ydpi="53.840736"><tspan
         sodipodi:role="line"
         id="tspan5055"
         x="-3393.2319"
         y="-1173.1174"
         style="font-style:normal;font-variant:normal;font-weight:bold;font-stretch:normal;font-family:sans-serif;-inkscape-font-specification:'sans-serif Bold';fill:#ff5555;stroke:none;stroke-opacity:1">ORM</tspan></text>
  </g>
</svg>
