<?xml version="1.0" encoding="UTF-8" standalone="no"?>
<!-- Created with Inkscape (http://www.inkscape.org/) -->

<svg
   xmlns:dc="http://purl.org/dc/elements/1.1/"
   xmlns:cc="http://creativecommons.org/ns#"
   xmlns:rdf="http://www.w3.org/1999/02/22-rdf-syntax-ns#"
   xmlns:svg="http://www.w3.org/2000/svg"
   xmlns="http://www.w3.org/2000/svg"
   xmlns:sodipodi="http://sodipodi.sourceforge.net/DTD/sodipodi-0.dtd"
   xmlns:inkscape="http://www.inkscape.org/namespaces/inkscape"
   width="210mm"
   height="297mm"
   viewBox="0 0 744.09448819 1052.3622047"
   id="svg2"
   version="1.1"
   inkscape:version="0.91 r13725"
   sodipodi:docname="RemoteQuery-microservices.svg">
  <defs
     id="defs4">
    <inkscape:perspective
       sodipodi:type="inkscape:persp3d"
       inkscape:vp_x="121.02917 : 852.89998 : 1"
       inkscape:vp_y="0 : 1252.332 : 0"
       inkscape:vp_z="578.63708 : 852.89998 : 1"
       inkscape:persp3d-origin="349.83312 : 633.24885 : 1"
       id="perspective4272" />
    <inkscape:perspective
       sodipodi:type="inkscape:persp3d"
       inkscape:vp_x="-31.947375 : 856.6094 : 1"
       inkscape:vp_y="0 : 936.917 : 0"
       inkscape:vp_z="308.46147 : 856.6094 : 1"
       inkscape:persp3d-origin="138.25704 : 692.28006 : 1"
       id="perspective4185" />
  </defs>
  <sodipodi:namedview
     id="base"
     pagecolor="#ffffff"
     bordercolor="#666666"
     borderopacity="1.0"
     inkscape:pageopacity="0.0"
     inkscape:pageshadow="2"
     inkscape:zoom="1.2620999"
     inkscape:cx="180.02811"
     inkscape:cy="655.83707"
     inkscape:document-units="px"
     inkscape:current-layer="layer1"
     showgrid="false"
     inkscape:window-width="1631"
     inkscape:window-height="1005"
     inkscape:window-x="53"
     inkscape:window-y="0"
     inkscape:window-maximized="0" />
  <metadata
     id="metadata7">
    <rdf:RDF>
      <cc:Work
         rdf:about="">
        <dc:format>image/svg+xml</dc:format>
        <dc:type
           rdf:resource="http://purl.org/dc/dcmitype/StillImage" />
        <dc:title></dc:title>
      </cc:Work>
    </rdf:RDF>
  </metadata>
  <g
     inkscape:label="Layer 1"
     inkscape:groupmode="layer"
     id="layer1">
    <text
       xml:space="preserve"
       style="font-style:normal;font-weight:normal;font-size:28.82450485px;line-height:125%;font-family:sans-serif;letter-spacing:0px;word-spacing:0px;fill:#42a29a;fill-opacity:1;stroke:none;stroke-width:1px;stroke-linecap:butt;stroke-linejoin:miter;stroke-opacity:1"
       x="279.35602"
       y="226.94328"
       id="text4136"
       sodipodi:linespacing="125%"
       inkscape:export-xdpi="203.2"
       inkscape:export-ydpi="203.2"
       transform="scale(0.98226812,1.018052)"><tspan
         sodipodi:role="line"
         id="tspan4138"
         x="279.35602"
         y="226.94328"
         style="font-style:normal;font-variant:normal;font-weight:normal;font-stretch:normal;font-family:Roboto;-inkscape-font-specification:Roboto;fill:#42a29a;fill-opacity:1"><tspan
   style="font-style:normal;font-variant:normal;font-weight:500;font-stretch:normal;font-family:Roboto;-inkscape-font-specification:'Roboto Medium';fill:#42a29a;fill-opacity:1"
   id="tspan4140">R</tspan>emote<tspan
   style="font-style:normal;font-variant:normal;font-weight:500;font-stretch:normal;font-family:Roboto;-inkscape-font-specification:'Roboto Medium';fill:#42a29a;fill-opacity:1"
   id="tspan4146">Q</tspan>uery</tspan></text>
    <text
       xml:space="preserve"
       style="font-style:normal;font-weight:normal;font-size:32.14788055px;line-height:125%;font-family:sans-serif;letter-spacing:0px;word-spacing:0px;fill:#000000;fill-opacity:1;stroke:none;stroke-width:1px;stroke-linecap:butt;stroke-linejoin:miter;stroke-opacity:1"
       x="128.02826"
       y="417.71173"
       id="text4148"
       sodipodi:linespacing="125%"
       transform="scale(0.95298923,1.0493298)"><tspan
         sodipodi:role="line"
         id="tspan4150"
         x="128.02826"
         y="417.71173"
         style="font-size:13.75px">Definition</tspan><tspan
         sodipodi:role="line"
         x="128.02826"
         y="434.89923"
         id="tspan4152"
         style="font-size:13.75px">#42a29a</tspan><tspan
         sodipodi:role="line"
         x="128.02826"
         y="452.08673"
         id="tspan4154"
         style="font-size:13.75px">Roboto</tspan></text>
    <text
       inkscape:export-ydpi="203.2"
       inkscape:export-xdpi="203.2"
       sodipodi:linespacing="125%"
       id="text4226"
       y="415.28073"
       x="121.08441"
       style="font-style:normal;font-weight:normal;font-size:33.28589249px;line-height:125%;font-family:sans-serif;letter-spacing:0px;word-spacing:0px;fill:#42a29a;fill-opacity:1;stroke:none;stroke-width:1px;stroke-linecap:butt;stroke-linejoin:miter;stroke-opacity:1"
       xml:space="preserve"><tspan
         style="font-style:normal;font-variant:normal;font-weight:normal;font-stretch:normal;font-family:Roboto;-inkscape-font-specification:Roboto;fill:#42a29a;fill-opacity:1"
         y="415.28073"
         x="121.08441"
         id="tspan4228"
         sodipodi:role="line"><tspan
   style="font-style:normal;font-variant:normal;font-weight:500;font-stretch:normal;font-family:Roboto;-inkscape-font-specification:'Roboto Medium'"
   id="tspan4245">R</tspan>oboto</tspan></text>
    <rect
       style="opacity:0.76999996;fill:#ff5f4e;fill-opacity:1;fill-rule:evenodd;stroke:none;stroke-width:4;stroke-linecap:round;stroke-linejoin:miter;stroke-miterlimit:10;stroke-dasharray:none;stroke-dashoffset:0;stroke-opacity:1"
       id="rect5741"
       width="68.491844"
       height="41.650448"
       x="254.5305"
       y="489.61841" />
    <g
       id="g5812"
       transform="translate(199.89653,166.4804)">
      <g
         transform="translate(78.43919,30.917637)"
         id="g5802">
        <rect
           y="89.530922"
           x="54.795784"
           height="54.608364"
           width="54.608364"
           id="rect5745"
           style="opacity:0.76999996;fill:#43a29a;fill-opacity:0.72156863;fill-rule:evenodd;stroke:none;stroke-width:4;stroke-linecap:round;stroke-linejoin:miter;stroke-miterlimit:10;stroke-dasharray:none;stroke-dashoffset:0;stroke-opacity:1" />
        <rect
           style="opacity:0.76999996;fill:#43a29a;fill-opacity:0.72156863;fill-rule:evenodd;stroke:none;stroke-width:4;stroke-linecap:round;stroke-linejoin:miter;stroke-miterlimit:10;stroke-dasharray:none;stroke-dashoffset:0;stroke-opacity:1"
           id="rect5747"
           width="54.608364"
           height="54.608364"
           x="54.795784"
           y="32.922459" />
        <rect
           style="opacity:0.76999996;fill:#43a29a;fill-opacity:0.72156863;fill-rule:evenodd;stroke:none;stroke-width:4;stroke-linecap:round;stroke-linejoin:miter;stroke-miterlimit:10;stroke-dasharray:none;stroke-dashoffset:0;stroke-opacity:1"
           id="rect5753"
           width="54.608364"
           height="54.608364"
           x="54.795784"
           y="146.13939" />
      </g>
      <g
         transform="translate(78.43919,31.268574)"
         id="g5807">
        <rect
           y="32.571518"
           x="-1.8125802"
           height="54.608364"
           width="54.608364"
           id="rect5755"
           style="opacity:0.76999996;fill:#43a29a;fill-opacity:0.72156863;fill-rule:evenodd;stroke:none;stroke-width:4;stroke-linecap:round;stroke-linejoin:miter;stroke-miterlimit:10;stroke-dasharray:none;stroke-dashoffset:0;stroke-opacity:1" />
        <rect
           style="opacity:0.76999996;fill:#43a29a;fill-opacity:0.72156863;fill-rule:evenodd;stroke:none;stroke-width:4;stroke-linecap:round;stroke-linejoin:miter;stroke-miterlimit:10;stroke-dasharray:none;stroke-dashoffset:0;stroke-opacity:1"
           id="rect5757"
           width="54.608364"
           height="54.608364"
           x="-1.8125802"
           y="145.78845" />
        <rect
           y="89.179985"
           x="-1.8125802"
           height="54.608364"
           width="54.608364"
           id="rect5759"
           style="opacity:0.76999996;fill:#43a29a;fill-opacity:0.72156863;fill-rule:evenodd;stroke:none;stroke-width:4;stroke-linecap:round;stroke-linejoin:miter;stroke-miterlimit:10;stroke-dasharray:none;stroke-dashoffset:0;stroke-opacity:1" />
      </g>
      <g
         transform="translate(78.43919,34.001988)"
         id="g5797">
        <rect
           style="opacity:0.76999996;fill:#43a29a;fill-opacity:0.72156863;fill-rule:evenodd;stroke:none;stroke-width:4;stroke-linecap:round;stroke-linejoin:miter;stroke-miterlimit:10;stroke-dasharray:none;stroke-dashoffset:0;stroke-opacity:1"
           id="rect5743"
           width="54.608364"
           height="54.608364"
           x="111.40414"
           y="143.05504" />
        <rect
           y="86.446571"
           x="111.40414"
           height="54.608364"
           width="54.608364"
           id="rect5751"
           style="opacity:0.76999996;fill:#43a29a;fill-opacity:0.72156863;fill-rule:evenodd;stroke:none;stroke-width:4;stroke-linecap:round;stroke-linejoin:miter;stroke-miterlimit:10;stroke-dasharray:none;stroke-dashoffset:0;stroke-opacity:1" />
        <rect
           style="opacity:0.76999996;fill:#43a29a;fill-opacity:0.72156863;fill-rule:evenodd;stroke:none;stroke-width:4;stroke-linecap:round;stroke-linejoin:miter;stroke-miterlimit:10;stroke-dasharray:none;stroke-dashoffset:0;stroke-opacity:1"
           id="rect5761"
           width="54.608364"
           height="54.608364"
           x="111.40414"
           y="29.8381" />
      </g>
    </g>
    <path
       style="opacity:0.76999996;fill:#42a29a;fill-opacity:0.94901961;fill-rule:evenodd;stroke:none;stroke-width:4;stroke-linecap:round;stroke-linejoin:miter;stroke-miterlimit:10;stroke-dasharray:none;stroke-dashoffset:0;stroke-opacity:1"
       d="M -140.94141 64.142578 L -140.94141 115.58398 C -139.6341 115.88033 -138.53679 116.38402 -137.66211 117.10547 C -136.17768 118.32986 -135.43555 120.10118 -135.43555 122.41992 C -135.43555 124.00187 -135.82054 125.32965 -136.58984 126.40234 C -137.34831 127.4642 -138.41015 128.28316 -139.77539 128.85742 L -134.46094 138.72266 L -134.46094 138.93359 L -138.86523 138.93359 L -140.94141 134.94531 L -140.94141 230.18164 L 25.669922 230.18164 L 25.669922 124.91406 C 25.225826 125.30813 24.870219 125.81985 24.605469 126.45117 L 24.605469 138.93359 L 21.599609 138.93359 L 21.599609 121.34766 L 24.525391 121.34766 L 24.574219 123.37891 C 24.894502 122.86856 25.262733 122.44987 25.669922 122.10547 L 25.669922 64.142578 L -140.94141 64.142578 z M 25.669922 122.10547 L 25.669922 124.91406 C 26.407214 124.25983 27.390379 123.93164 28.621094 123.93164 C 29.152021 123.93164 29.644529 123.97102 30.099609 124.04688 L 30.099609 121.25 C 29.796222 121.09831 29.352681 121.02344 28.767578 121.02344 C 27.545864 121.02344 26.516282 121.38962 25.669922 122.10547 z M -140.94141 134.94531 L -140.94141 125.63477 C -141.7019 126.21294 -142.70236 126.51758 -143.96875 126.51758 L -148.19531 126.51758 L -148.19531 118.58594 L -143.85547 118.58594 C -142.60566 118.60487 -141.64515 118.89582 -140.94141 119.42773 L -140.94141 115.58398 C -141.85275 115.3774 -142.86277 115.26953 -143.98438 115.26953 L -152.30664 115.26953 L -152.30664 138.93359 L -148.19531 138.93359 L -148.19531 129.81641 L -143.61133 129.81641 L -140.94141 134.94531 z M -140.94141 119.42773 L -140.94141 125.63477 C -140.86903 125.57974 -140.78654 125.53682 -140.71875 125.47656 C -139.93861 124.77227 -139.54883 123.81316 -139.54883 122.59961 C -139.54883 121.33188 -139.91076 120.35166 -140.63672 119.6582 C -140.72694 119.57072 -140.8398 119.50453 -140.94141 119.42773 z M -28.28125 114.94531 C -26.330905 114.94531 -24.613336 115.40996 -23.128906 116.3418 C -21.633642 117.26279 -20.47866 118.59536 -19.666016 120.33984 C -18.853372 122.07348 -18.442476 124.09444 -18.431641 126.40234 L -18.431641 127.71875 C -18.431641 129.96165 -18.78878 131.90773 -19.503906 133.55469 C -20.208198 135.19081 -21.199956 136.49074 -22.478516 137.45508 L -18.416016 140.625 L -21.080078 143.0293 L -26.119141 139.04688 C -26.780091 139.18773 -27.48958 139.25977 -28.248047 139.25977 C -30.155052 139.25977 -31.861088 138.79315 -33.367188 137.86133 C -34.862451 136.91866 -36.022224 135.57934 -36.845703 133.8457 C -37.658347 132.11206 -38.071196 130.11418 -38.082031 127.84961 L -38.082031 126.51758 C -38.082031 124.20967 -37.675925 122.1724 -36.863281 120.40625 C -36.039803 118.6401 -34.884821 117.29121 -33.400391 116.35938 C -31.905126 115.4167 -30.199089 114.94531 -28.28125 114.94531 z M -64.769531 117.08984 L -61.761719 117.08984 L -61.761719 121.34766 L -58.478516 121.34766 L -58.478516 123.67188 L -61.761719 123.67188 L -61.761719 134.57812 C -61.761719 135.28241 -61.614818 135.81236 -61.322266 136.16992 C -61.029714 136.51665 -60.532416 136.69141 -59.828125 136.69141 C -59.481397 136.69141 -59.005211 136.62611 -58.398438 136.49609 L -58.398438 138.93359 C -59.18941 139.15029 -59.957445 139.25977 -60.705078 139.25977 C -62.048649 139.25977 -63.06152 138.8517 -63.744141 138.03906 C -64.426761 137.22642 -64.769531 136.07339 -64.769531 134.57812 L -64.769531 123.67188 L -67.970703 123.67188 L -67.970703 121.34766 L -64.769531 121.34766 L -64.769531 117.08984 z M -28.28125 118.35742 C -30.047396 118.35742 -31.433728 119.05732 -32.441406 120.45508 C -33.438249 121.84198 -33.947079 123.80244 -33.96875 126.33789 L -33.96875 127.71875 C -33.96875 130.27587 -33.471453 132.27571 -32.474609 133.7168 C -31.466931 135.15789 -30.057534 135.87891 -28.248047 135.87891 C -26.41689 135.87891 -25.014235 135.18574 -24.039062 133.79883 C -23.053054 132.41191 -22.560547 130.38422 -22.560547 127.71875 L -22.560547 126.48438 C -22.560547 123.81891 -23.057844 121.79796 -24.054688 120.42188 C -25.051531 119.04578 -26.460928 118.35742 -28.28125 118.35742 z M -124.77344 121.02344 C -122.4872 121.02344 -120.71109 121.7771 -119.44336 123.2832 C -118.17564 124.7893 -117.54102 126.94367 -117.54102 129.75 L -117.54102 131.00195 L -129.45508 131.00195 C -129.41174 132.73559 -128.90771 134.13824 -127.94336 135.21094 C -126.96819 136.27279 -125.73355 136.80469 -124.23828 136.80469 C -123.17643 136.80469 -122.27586 136.5877 -121.53906 136.1543 C -120.80227 135.72088 -120.15807 135.14677 -119.60547 134.43164 L -117.76953 135.86133 C -119.24312 138.12589 -121.4532 139.25977 -124.40039 139.25977 C -126.78414 139.25977 -128.72348 138.47824 -130.21875 136.91797 C -131.71402 135.34686 -132.46094 133.25103 -132.46094 130.62891 L -132.46094 130.07617 C -132.46094 128.3317 -132.13166 126.77736 -131.4707 125.41211 C -130.79892 124.03604 -129.86765 122.96267 -128.67578 122.19336 C -127.47307 121.41323 -126.17118 121.02344 -124.77344 121.02344 z M -105.95312 121.02344 C -103.49353 121.02344 -101.82013 121.96623 -100.93164 123.85156 C -100.34653 123.00641 -99.588081 122.32283 -98.65625 121.80273 C -97.713583 121.28265 -96.602779 121.02344 -95.324219 121.02344 C -91.466869 121.02344 -89.506418 123.0655 -89.441406 127.15039 L -89.441406 138.93359 L -92.447266 138.93359 L -92.447266 127.33008 C -92.447266 126.07319 -92.734325 125.13518 -93.308594 124.51758 C -93.882862 123.88913 -94.846765 123.57422 -96.201172 123.57422 C -97.317203 123.57422 -98.243671 123.91024 -98.980469 124.58203 C -99.717267 125.24298 -100.14644 126.13681 -100.26562 127.26367 L -100.26562 138.93359 L -103.28711 138.93359 L -103.28711 127.41016 C -103.28711 124.85304 -104.54002 123.57422 -107.04297 123.57422 C -109.01498 123.57422 -110.36388 124.41429 -111.08984 126.09375 L -111.08984 138.93359 L -114.0957 138.93359 L -114.0957 121.34766 L -111.25195 121.34766 L -111.16992 123.29883 C -109.88053 121.78189 -108.14185 121.02344 -105.95312 121.02344 z M -77.640625 121.02344 C -75.246034 121.02344 -73.311485 121.85197 -71.837891 123.50977 C -70.353461 125.16756 -69.611328 127.37285 -69.611328 130.125 L -69.611328 130.33594 C -69.611328 132.0479 -69.942565 133.58593 -70.603516 134.95117 C -71.25363 136.30558 -72.191632 137.36263 -73.416016 138.12109 C -74.629564 138.87956 -76.025475 139.25977 -77.607422 139.25977 C -79.991177 139.25977 -81.925727 138.42928 -83.410156 136.77148 C -84.88375 135.11369 -85.621094 132.91993 -85.621094 130.18945 L -85.621094 129.97852 C -85.621094 128.25571 -85.285067 126.70615 -84.613281 125.33008 C -83.930661 123.954 -82.98787 122.89216 -81.785156 122.14453 C -80.571608 121.3969 -79.190066 121.02344 -77.640625 121.02344 z M -48.060547 121.02344 C -45.774309 121.02344 -43.998193 121.7771 -42.730469 123.2832 C -41.462745 124.7893 -40.828125 126.94367 -40.828125 129.75 L -40.828125 131.00195 L -52.742188 131.00195 C -52.698847 132.73559 -52.194807 134.13824 -51.230469 135.21094 C -50.255296 136.27279 -49.018701 136.80469 -47.523438 136.80469 C -46.461583 136.80469 -45.562969 136.5877 -44.826172 136.1543 C -44.089375 135.72088 -43.445176 135.14677 -42.892578 134.43164 L -41.056641 135.86133 C -42.530235 138.12589 -44.740311 139.25977 -47.6875 139.25977 C -50.071255 139.25977 -52.010595 138.47824 -53.505859 136.91797 C -55.001124 135.34686 -55.748047 133.25103 -55.748047 130.62891 L -55.748047 130.07617 C -55.748047 128.3317 -55.418763 126.77736 -54.757812 125.41211 C -54.086027 124.03604 -53.152814 122.96267 -51.960938 122.19336 C -50.758223 121.41323 -49.458294 121.02344 -48.060547 121.02344 z M 10.904297 121.02344 C 13.190536 121.02344 14.968604 121.7771 16.236328 123.2832 C 17.504053 124.7893 18.136719 126.94367 18.136719 129.75 L 18.136719 131.00195 L 6.2246094 131.00195 C 6.26795 132.73559 6.7719904 134.13824 7.7363281 135.21094 C 8.7115007 136.27279 9.946142 136.80469 11.441406 136.80469 C 12.503261 136.80469 13.401875 136.5877 14.138672 136.1543 C 14.875469 135.72088 15.519668 135.14677 16.072266 134.43164 L 17.910156 135.86133 C 16.436562 138.12589 14.226485 139.25977 11.279297 139.25977 C 8.8955412 139.25977 6.9562022 138.47824 5.4609375 136.91797 C 3.9656728 135.34686 3.2167969 133.25103 3.2167969 130.62891 L 3.2167969 130.07617 C 3.2167969 128.3317 3.548034 126.77736 4.2089844 125.41211 C 4.88077 124.03604 5.8120286 122.96267 7.0039062 122.19336 C 8.2066192 121.41323 9.5065496 121.02344 10.904297 121.02344 z M -14.417969 121.34766 L -11.410156 121.34766 L -11.410156 132.70898 C -11.410156 135.37445 -10.327206 136.70703 -8.1601562 136.70703 C -5.863083 136.70703 -4.3346395 135.85064 -3.5761719 134.13867 L -3.5761719 121.34766 L -0.5703125 121.34766 L -0.5703125 138.93359 L -3.4296875 138.93359 L -3.4960938 137.19531 C -4.666301 138.57139 -6.3819168 139.25977 -8.6464844 139.25977 C -10.520983 139.25977 -11.951492 138.71633 -12.9375 137.63281 C -13.912673 136.53845 -14.407133 134.92556 -14.417969 132.79102 L -14.417969 121.34766 z M 30.994141 121.34766 L 37.267578 138.73828 L 36.599609 140.52734 C 36.231211 141.6217 35.761769 142.37342 35.1875 142.78516 C 34.624067 143.1969 33.832967 143.4043 32.814453 143.4043 L 32.001953 143.33789 L 32.001953 145.77539 L 33.123047 145.98828 L 33.691406 146.03711 C 36.075162 146.03711 37.813843 144.57395 38.908203 141.64844 L 45.978516 121.34766 L 42.759766 121.34766 L 38.664062 134.5293 L 34.277344 121.34766 L 30.994141 121.34766 z M -124.77344 123.49414 C -125.98698 123.49414 -127.0066 123.93768 -127.83008 124.82617 C -128.65356 125.70383 -129.16239 126.93846 -129.35742 128.53125 L -120.54883 128.53125 L -120.54883 128.30469 C -120.63551 126.77691 -121.0464 125.59603 -121.7832 124.76172 C -122.52 123.91657 -123.51654 123.49414 -124.77344 123.49414 z M -77.640625 123.49414 C -79.125054 123.49414 -80.322261 124.08459 -81.232422 125.26562 C -82.142583 126.44667 -82.597656 128.13638 -82.597656 130.33594 C -82.597656 132.28628 -82.149326 133.85216 -81.25 135.0332 C -80.339839 136.21424 -79.124357 136.80469 -77.607422 136.80469 C -76.079651 136.80469 -74.866123 136.20946 -73.966797 135.01758 C -73.067472 133.81486 -72.619141 132.13473 -72.619141 129.97852 C -72.619141 128.04984 -73.079004 126.48874 -74 125.29688 C -74.910161 124.09415 -76.12369 123.49414 -77.640625 123.49414 z M -48.060547 123.49414 C -49.274095 123.49414 -50.291755 123.93768 -51.115234 124.82617 C -51.938714 125.70383 -52.449497 126.93846 -52.644531 128.53125 L -43.833984 128.53125 L -43.833984 128.30469 C -43.920666 126.77691 -44.333515 125.59603 -45.070312 124.76172 C -45.80711 123.91657 -46.803658 123.49414 -48.060547 123.49414 z M 10.904297 123.49414 C 9.6907489 123.49414 8.6730885 123.93768 7.8496094 124.82617 C 7.0261303 125.70383 6.5173002 126.93846 6.3222656 128.53125 L 15.130859 128.53125 L 15.130859 128.30469 C 15.044177 126.77691 14.631329 125.59603 13.894531 124.76172 C 13.157734 123.91657 12.161186 123.49414 10.904297 123.49414 z "
       id="rect5852" />
    <g
       style="font-style:normal;font-weight:normal;font-size:33.28589249px;line-height:125%;font-family:sans-serif;letter-spacing:0px;word-spacing:0px;fill:#42a29a;fill-opacity:1;stroke:none;stroke-width:1px;stroke-linecap:butt;stroke-linejoin:miter;stroke-opacity:1"
       id="text5883" />
    <text
       inkscape:export-ydpi="203.2"
       inkscape:export-xdpi="203.2"
       sodipodi:linespacing="125%"
       id="text5951"
       y="721.80518"
       x="311.67233"
       style="font-style:normal;font-weight:normal;font-size:33.28589249px;line-height:125%;font-family:sans-serif;letter-spacing:0px;word-spacing:0px;fill:#42a29a;fill-opacity:1;stroke:none;stroke-width:1px;stroke-linecap:butt;stroke-linejoin:miter;stroke-opacity:1"
       xml:space="preserve"><tspan
         style="font-style:normal;font-variant:normal;font-weight:normal;font-stretch:normal;font-family:Roboto;-inkscape-font-specification:Roboto;fill:#42a29a;fill-opacity:1"
         y="721.80518"
         x="311.67233"
         id="tspan5953"
         sodipodi:role="line"><tspan
   id="tspan5955"
   style="font-style:normal;font-variant:normal;font-weight:500;font-stretch:normal;font-family:Roboto;-inkscape-font-specification:'Roboto Medium';fill:#42a29a;fill-opacity:1">R</tspan>emote<tspan
   id="tspan5957"
   style="font-style:normal;font-variant:normal;font-weight:500;font-stretch:normal;font-family:Roboto;-inkscape-font-specification:'Roboto Medium';fill:#42a29a;fill-opacity:1">Q</tspan>uery</tspan></text>
  </g>
  <text
     xml:space="preserve"
     style="font-style:normal;font-weight:normal;font-size:3.04273605px;line-height:125%;font-family:sans-serif;letter-spacing:0px;word-spacing:0px;fill:#808080;fill-opacity:1;stroke:none;stroke-width:1px;stroke-linecap:butt;stroke-linejoin:miter;stroke-opacity:1"
     x="197.07138"
     y="350.91861"
     id="text4222"
     sodipodi:linespacing="125%"
     inkscape:export-xdpi="203.2"
     inkscape:export-ydpi="203.2"><tspan
       sodipodi:role="line"
       id="tspan4224"
       x="197.07138"
       y="350.91861">© Sun Microsystems Inc.</tspan></text>
</svg>
